<svg width="22" height="22" viewBox="0 0 22 22" fill="none" xmlns="http://www.w3.org/2000/svg">
<path d="M4.75 3.5C4.05859 3.5 3.5 4.05859 3.5 4.75V17.25C3.5 17.9414 4.05859 18.5 4.75 18.5H17.25C17.9414 18.5 18.5 17.9414 18.5 17.25V4.75C18.5 4.05859 17.9414 3.5 17.25 3.5H4.75ZM2.25 4.75C2.25 3.37109 3.37109 2.25 4.75 2.25H17.25C18.6289 2.25 19.75 3.37109 19.75 4.75V17.25C19.75 18.6289 18.6289 19.75 17.25 19.75H4.75C3.37109 19.75 2.25 18.6289 2.25 17.25V4.75ZM11 10.0625C11.2486 10.0625 11.4871 10.1613 11.6629 10.3371C11.8387 10.5129 11.9375 10.7514 11.9375 11C11.9375 11.2486 11.8387 11.4871 11.6629 11.6629C11.4871 11.8387 11.2486 11.9375 11 11.9375C10.7514 11.9375 10.5129 11.8387 10.3371 11.6629C10.1613 11.4871 10.0625 11.2486 10.0625 11C10.0625 10.7514 10.1613 10.5129 10.3371 10.3371C10.5129 10.1613 10.7514 10.0625 11 10.0625ZM10.0625 7.25C10.0625 7.00136 10.1613 6.7629 10.3371 6.58709C10.5129 6.41127 10.7514 6.3125 11 6.3125C11.2486 6.3125 11.4871 6.41127 11.6629 6.58709C11.8387 6.7629 11.9375 7.00136 11.9375 7.25C11.9375 7.49864 11.8387 7.7371 11.6629 7.91291C11.4871 8.08873 11.2486 8.1875 11 8.1875C10.7514 8.1875 10.5129 8.08873 10.3371 7.91291C10.1613 7.7371 10.0625 7.49864 10.0625 7.25ZM11 13.8125C11.2486 13.8125 11.4871 13.9113 11.6629 14.0871C11.8387 14.2629 11.9375 14.5014 11.9375 14.75C11.9375 14.9986 11.8387 15.2371 11.6629 15.4129C11.4871 15.5887 11.2486 15.6875 11 15.6875C10.7514 15.6875 10.5129 15.5887 10.3371 15.4129C10.1613 15.2371 10.0625 14.9986 10.0625 14.75C10.0625 14.5014 10.1613 14.2629 10.3371 14.0871C10.5129 13.9113 10.7514 13.8125 11 13.8125Z" fill="#F7F7F7"/>
</svg>