<?xml version="1.0" encoding="UTF-8" standalone="no"?>
<!DOCTYPE svg PUBLIC "-//W3C//DTD SVG 1.1//EN" "http://www.w3.org/Graphics/SVG/1.1/DTD/svg11.dtd">
<svg width="100%" height="100%" viewBox="0 0 1024 1024" version="1.1" xmlns="http://www.w3.org/2000/svg" xmlns:xlink="http://www.w3.org/1999/xlink" xml:space="preserve" xmlns:serif="http://www.serif.com/" style="fill-rule:evenodd;clip-rule:evenodd;stroke-linejoin:round;stroke-miterlimit:2;">
    <g id="BOSS-Logo" serif:id="BOSS Logo" transform="matrix(1,0,0,1,-1,-0.695656)">
        <g transform="matrix(9.50285,0,0,9.50285,-1088,-4214.74)">
            <path d="M164.849,529.854C157.838,529.563 151.174,526.65 146.192,521.668L164.849,503.012L164.849,529.854Z" style="fill:rgb(33,114,235);"/>
        </g>
        <g transform="matrix(9.50285,0,0,9.50285,-1088,-4214.74)">
            <path d="M167.18,500.68L185.836,482.024C191.093,487.281 194.047,494.411 194.047,501.846C194.047,516.937 182.121,529.243 167.18,529.855L167.18,500.68Z" style="fill:rgb(237,107,33);"/>
        </g>
        <g transform="matrix(1.10764,0,0,1.10764,76.7942,64.0982)">
            <path d="M599.3,186.8C505.4,92.9 353.2,92.9 259.3,186.8C165.4,280.7 165.4,432.9 259.3,526.8L599.3,186.8Z" style="fill:rgb(54,54,54);fill-rule:nonzero;"/>
        </g>
    </g>
</svg>
